<?xml version="1.0" encoding="utf-8"?>
<!-- Generator: Adobe Illustrator 23.0.0, SVG Export Plug-In . SVG Version: 6.00 Build 0)  -->
<svg version="1.1" id="Layer_1" focusable="false" xmlns="http://www.w3.org/2000/svg" xmlns:xlink="http://www.w3.org/1999/xlink"
	 x="0px" y="0px" viewBox="0 0 512 512" style="enable-background:new 0 0 512 512;" xml:space="preserve">
<style type="text/css">
	.st0{fill:#3B82F6;}
</style>
<path class="st0" d="M320.2,243.8l-49.7,99.4c-6,12.1-23.4,11.7-28.9-0.6l-56.9-126.3l-30,71.7H60.6l182.5,186.5
	c7.1,7.3,18.6,7.3,25.7,0L451.4,288H342.3L320.2,243.8L320.2,243.8z M473.7,73.9l-2.4-2.5c-51.5-52.6-135.8-52.6-187.4,0L256,100
	l-27.9-28.5c-51.5-52.7-135.9-52.7-187.4,0l-2.4,2.4C-10.4,123.7-12.5,203,31,256h102.4l35.9-86.2c5.4-12.9,23.6-13.2,29.4-0.4
	l58.2,129.3l49-97.9c5.9-11.8,22.7-11.8,28.6,0l27.6,55.2H481C524.5,203,522.4,123.7,473.7,73.9L473.7,73.9z"/>
</svg>
