<?xml version="1.0" encoding="utf-8"?>
<!-- Generator: Adobe Illustrator 23.0.0, SVG Export Plug-In . SVG Version: 6.00 Build 0)  -->
<svg version="1.1" id="Layer_1" focusable="false" xmlns="http://www.w3.org/2000/svg" xmlns:xlink="http://www.w3.org/1999/xlink"
	 x="0px" y="0px" viewBox="0 0 496 512" style="enable-background:new 0 0 496 512;" xml:space="preserve">
<style type="text/css">
	.st0{fill:#3B82F6;}
</style>
<path class="st0" d="M248,8C111,8,0,119,0,256s111,248,248,248s248-111,248-248S385,8,248,8z M248,456c-110.3,0-200-89.7-200-200
	S137.7,56,248,56s200,89.7,200,200S358.3,456,248,456z M256,304c-13.2,0-24,10.8-24,24s10.8,24,24,24c23.8,0,46.3,10.5,61.6,28.8
	c8.1,9.8,23.2,11.9,33.8,3.1c10.2-8.5,11.6-23.6,3.1-33.8C330,320.8,294.1,304,256,304z M168,240c17.7,0,32-14.3,32-32
	s-14.3-32-32-32s-32,14.3-32,32S150.3,240,168,240z M328,176c-17.7,0-32,14.3-32,32s14.3,32,32,32s32-14.3,32-32S345.7,176,328,176z
	 M162.4,274.8C151,290.1,126,325.4,126,342.9c0,22.7,18.8,41.1,42,41.1s42-18.4,42-41.1c0-17.5-25-52.8-36.4-68.1
	C170.8,271.1,165.2,271.1,162.4,274.8L162.4,274.8z"/>
</svg>
