<?xml version="1.0" encoding="utf-8"?>
<!-- Generator: Adobe Illustrator 23.0.0, SVG Export Plug-In . SVG Version: 6.00 Build 0)  -->
<svg version="1.1" id="Layer_1" focusable="false" xmlns="http://www.w3.org/2000/svg" xmlns:xlink="http://www.w3.org/1999/xlink"
	 x="0px" y="0px" viewBox="0 0 512 512" style="enable-background:new 0 0 512 512;" xml:space="preserve">
<style type="text/css">
	.st0{fill:#3B82F6;}
</style>
<path class="st0" d="M447.1,112c-34.2,0.5-62.3,28.4-63,62.6c-0.5,24.3,12.5,45.6,32,56.8V344c0,57.3-50.2,104-112,104
	c-60,0-109.2-44.1-111.9-99.2C265,333.8,320,269.2,320,192V36.6c0-11.4-8.1-21.3-19.3-23.5L237.8,0.5c-13-2.6-25.6,5.8-28.2,18.8
	L206.4,35c-2.6,13,5.8,25.6,18.8,28.2l30.7,6.1v121.4c0,52.9-42.2,96.7-95.1,97.2c-53.4,0.5-96.9-42.7-96.9-96V69.4l30.7-6.1
	c13-2.6,21.4-15.2,18.8-28.2l-3.1-15.7C107.7,6.4,95.1-2,82.1,0.6L19.3,13C8.1,15.3,0,25.1,0,36.6V192c0,77.3,55.1,142,128.1,156.8
	C130.7,439.2,208.6,512,304,512c97,0,176-75.4,176-168V231.4c19.1-11.1,32-31.7,32-55.4C512,140.3,482.8,111.5,447.1,112z M448,192
	c-8.8,0-16-7.2-16-16s7.2-16,16-16s16,7.2,16,16S456.8,192,448,192z"/>
</svg>
